<mxfile host="app.diagrams.net" modified="2024-01-04T04:25:23.595Z" agent="Mozilla/5.0 (Windows NT 10.0; Win64; x64) AppleWebKit/537.36 (KHTML, like Gecko) Chrome/120.0.0.0 Safari/537.36 Edg/120.0.0.0" etag="4MR6uS0hZJkALfTuX4LT" version="22.1.16" type="github">
  <diagram name="第 1 页" id="qm2cmFEnemLSD3Opt1nX">
    <mxGraphModel dx="1426" dy="833" grid="1" gridSize="10" guides="1" tooltips="1" connect="1" arrows="1" fold="1" page="1" pageScale="1" pageWidth="827" pageHeight="1169" math="0" shadow="0">
      <root>
        <mxCell id="0" />
        <mxCell id="1" parent="0" />
        <mxCell id="G0v7JYhzNec-LpJyPUYS-1" value="" style="rounded=0;whiteSpace=wrap;html=1;" vertex="1" parent="1">
          <mxGeometry x="350" y="400" width="120" height="60" as="geometry" />
        </mxCell>
        <mxCell id="G0v7JYhzNec-LpJyPUYS-2" value="" style="shape=stencil(7VjLUlsxDP2abDW2ZdnWmtL/YIZQMqWEAfr6++o29U0sc0+nq27YhXBOrMfRw97x1cv9zdN+l8LL6/Px8/774fb1fscfdikdHu/3z4dX+7Tj6x1f3R2f95+ej18fb09/P90syOXTl+O35Rd+nHiZalpIKfw8fSEUwu8vPp7gD4fHC3iiHAZ4ItFteKDWBnikXBFcq4PHvA2P3nY7jrfhTKE6uMg2PJMWB+e4Da+UmoNHYIz6yAQKAB4TFe8rylMU4uzxwNlYZ3siyNTyc+qjg/CRmjj8H4fexnM394xXEH3Du/hESiCell0nZCZGui/dvXOdQPuVchzwjUoD2syT/VZZQPvZHB4TEFcFvkmQTHEkWO0W4HLJFEZJmA8J5LhacxgrhpkUBKk20lGkrLA/NOlF0glZKAJZa/RpENMRiJIWKqMPUqiCKKkSj4krkRS0xBjWyl0ZlRjZZEEZj7BIK7Ypjk5YpBMKk/pqa7gcLEzOpFZJQOY0+FRbahIo6JZ6618JAk2SRjKaZF5VYJIl1kXJCApKTpiym2YBd2ETW63TEQVUdesz5oLQQAll60viCWgiLwUznYDmWrYNwREaFPhygnpCAYkwH2Q6gdEJc6obnFYSKUyEgFNd80QAUTIxuXmyEFA7bn55UVyjJfjuagRB/dt6H3tCwwRxTivcYcykOlVQRmHVSRoKu6uFVSdCA9KwKccTAanVpFHmLgASl9WPRV13uS15K3sC2gWsgHzi1m1is0TnxIGwGsGb1GCvNJO0eUJGPlSqUxNAC9lCmE5ABBua1XW+TA2tJ6XPj5UQ4BhtsY+0iyGH5N1yL5eLMZqA+IyQ3GTHTcAIThq2CiDxGUHHKFnckJYWk9x2kqCWLEp5zPRStIBgeXATyGowgRlX1M8HkyOaD4X97mB7ZUV9yaQxhtX2cbTqmlrztBsXYBKvMVkJDMOaxKt1uaKBKMXs8xAZLie1D7S1HPr9eOPm7+63Ai9k05KLK+H9oWBzc35/KPivDwXcq+784sUIL339XptVn1Ob+LH1CIy//VzzdchA+ou/7kILb/0WDndRE9x2tJfSRV8AA8n0k91AgntynFaVdXxs6T97PGprcdKnwBvaem84wysaRf5aYOkGvy596pzhqGv+4+PtX+H24fxOfHd4eDg9M1/+378r21enN2m+/gU=);lineShape=1;strokeColor=default;" vertex="1" parent="1">
          <mxGeometry x="210.44490053160894" y="360.04061196516113" width="16.860019468611426" height="142.7246923024852" as="geometry" />
        </mxCell>
        <mxCell id="G0v7JYhzNec-LpJyPUYS-3" value="" style="shape=stencil(7VjLbhsxDPwaXwlS1POcpv8RIE5jNI0Dx+nj70vX0NbUVmPk0lNu6zVnJXKGD2mjN6+Pdy/bTeDX42H/dftjd3983OinTQi758ftYXe0p43ebvTmYX/Yfjns357vz79f7k6Wp6dv+++nL/w84wJJPIEC/zq/SI1q+vPm89n+afd8YS+ZcnYAzRRlDgiVYnWAoMR1DohCmR1AAnGeA1KiFPwKVMECuRIXZ8/EPLcvlUoavp91bt+Ymt9PJg3AvlD29hbkhgCVgniAfQJwYIDiSZOGt9QoeFkEoQZkYYDBh5BIUZBa52gB2JqANeGFpUV5SgnowpZofgkt1K7sycc1WnrgMKUBkKghIhqJ9yE2qG1jLjWfn0IRiNUA7IlIgUqD6osDQHtN+DcgUvWAkkgAcwYYnLaMggCl4J0uJlcUpUCxjCsk5LRQWfnQkNNCoh5gZQqtwGPK5dy9mgGyT7nMpEhL3HldiIs4SkJhLT7Eg6zyIXV1zXhIngdLIMiDdjFfAGA+xJUP2vvLDNAGQKaCwpooeqYt4xT5kEYtpUKMaqUBBqa1Z8gMMJQZa2EVb4kHtWpP2lmU1Ku1FNICiRuYthQVtKUwOl2uVD5rOKstMSJOerpcOB0QD0w1j2GFdclS1A8COeAmx11qizRsFEBMC/Ewjtkn0Aoy9geTd8BReifgYzr5j9MJ9vpjOrk+nfBYjbX188Rsuh+OG3agCaD0WZEIvrhqJAY+2Pmk+VppTEcQ1hOvQ44WGFYTp3of7BSnSK6lH/IuGwQI66pPm1YiCNKq2l8kyAQwnMlsAQUbMp35BUwpCdjzOAZYyytgP9wZWuztC4BkJvEBrbnXnIn9UC6qQAK4976FsAwHVu6dbLEPsD8zJb+fXOAhmnvBXewjbLayGmGkn9onenjfvcR1e3v4ewnysHt6Ot+hXP4/XprYq/OFi97+Bg==);lineShape=1;strokeColor=default;" vertex="1" parent="1">
          <mxGeometry x="211.44256495512013" y="229.86544149674546" width="56.167737859751014" height="7.700876931004814" as="geometry" />
        </mxCell>
        <mxCell id="G0v7JYhzNec-LpJyPUYS-4" value="" style="shape=stencil(lVbLctswDPwaXTEE+D6n6X9kJk6tqWtnHKePvy9UDSMRsraTmyzvisRiF+TgH96OT6+HQdzb7Xr5fvg1Pt+Og/8yiIzn4+E63vRp8I+Df3i5XA/frpf38/P8+/VpQk5PPy4/py/8nnm1UkkTS9yf+U2g6v+9+DrjT+N5hS+FcunwnCmUfUJOFGNH8ELe7RNSJef7HXkqGRCYvHSEmMjFfYL+bWpOibLsE4KW2G+pOGJQdAi26BqogC2FSFx7QsIreApmBdwHXyn2KtVCiQFBVeeeUCmkfYIkqmIJFcjKuqW8IYBOs2xq0E+AotOdmguoWUicFTWDNDhyBp9aW3bw3Buvat+BQkLJ4H2z7v2wkYQeL7BeVheJJbgKNuQ2xmbKyBSZSrEEVIIPm5p1XqAkbEX1JMBF0zgxRYeW771wWlkj5QDjLybNmRwoOnAbWCujClIpbmStJMjZtQ3dFQFGQY3Qq8Tuw+73zRTs0aBLIG8U8sniGSywNWshBiW4NhBX6SzA3J/F60nZNy2ryChtKmk/UVOkChbgYk+FqPMCWFsipV6iIFSRpJqF/mTzTIIOKt8G4octEgmIZxR7KnhKCB9slwXjs53ZOpDwbYEt3oGmpU3S1CYg+5mbHAsemVrvRzUbPEpZUTm8/T5oWMntPrfgI9i/Tlsz4Rl+XzNihiO3WNzHl9aepb8F9Hc1dRYDoVR+9kb7f7w+LNfnl/F0mm/f6//tdVtfzVd1//gX);lineShape=1;strokeColor=default;" vertex="1" parent="1">
          <mxGeometry x="229.79847720316116" y="244.38533059553947" width="6.809200923370781" height="37.50040525127406" as="geometry" />
        </mxCell>
        <mxCell id="G0v7JYhzNec-LpJyPUYS-5" value="" style="shape=stencil(7VjLbhsxDPwaXwlJ1IM6p+1/BIjTGE3jwElff19uDSkmbc+iQA8t0Nt6rVlyyOFIuxu+eXm4fd5uUnh5Pew/bb/t7l4fNvxuk9Lu6WF72L3q1Ybfb/jmfn/YfjzsvzzdHX8/3y4rl6vP+6/LE74fcY0kLqAUfhxvRBL+dePDcfnj7ulkecpU2KwPFML19TlRE7O+UuzX15dEodp8KkkDgEo5GwBHKhkAGrHNKDeKOEJMloKSAjUqhUIzgFaoItKVgk2pdeIEOYglLZESaEPpFG1ZhalECOiWg2gZAKCGkcAECEmFEcSm1LVxqEpCvVhAplhglYqtUq/EKEKhZjl0wdLgswidMupDHOqf8g4rAyTUug/Rgb6zDkTzgAQ6lzOxa0RbG7luB6KFoZaLAJWOq6uyYsBB+mjsBFQYQaUjZ4AC1KfSKZbDiguodKR7Dg3MqErHkdbmB5RSp2b7oPJCne5nM6qKX4nANiWd2gAGYhHCufUh0tPoJiBTRSkxRbuf1ALNtYcxYCcAAQMkbfx9khIyJinDhiaAKYCUJFOIvqxZAIApWdLauBUA2whFhxZYn6aUnDQiZdA4Jd2dvDv0JXX35AAN7lnauG69chlRQFqlUc9mWgBpHVHvGmrfgMObu88qBWiVOkDFzXSCI3ri7hNRh1quhah25Ja9GwFk7GlTfZE6Yq0bhPUZHQgY4SIARKjVt1oNfWVH+RsPQA7w/wD0Rw5Arkr/4AGI5cLhuIIIXP1pozE8z3CjZiOovAoYiCUly0FjCgJUSnbk0vTby29+xR+AorYa2QaJC5Bgo5WyVbe+inYkVqri1yNxs9eRvromRPhMqTKs+bLXe6fXN9cK+M7oc30eu/yV9f75cVT42vPdGFAGdOM440yJDse8Vh2bfYFWxP58zvglnZq1lQSl9psfMVaX68Xb95L73ePj8XPL6f/++4reOn6b4fc/AQ==);lineShape=1;strokeColor=default;" vertex="1" parent="1">
          <mxGeometry x="236.886979198242" y="260.51999008886605" width="23.889682748064388" height="20.813243612198676" as="geometry" />
        </mxCell>
        <mxCell id="G0v7JYhzNec-LpJyPUYS-6" value="" style="shape=stencil(lVbLbttADPwaXYnd5T645zT9jwBxaqOuHThum/x9qQpSTdY7RW+yxDFfwyEnfnjbP73uphTerpfz193Pw/N1P/GnKaXDab+7HK76NPHjxA8v58vuy+X8/fS8/H59mi3np2/nH/M/vC84phpnUAofy4tSSfrvN58X++PhdGOfAoVqAMyU2xjAkRIbQOzUeAzIiVo2gE4MHJRMJRj7RF3G9rWQJGOvKYWxfRPq3dlLHtv3RiH6hBMCCGXrYO4KyKB3KjaDhEsaw5bi1rW6VnnkQsQAMq9lGAGiBZRALcIydUskZV5CgErsAJ06aFxXYlgi1UgZARJV24gaqBQAiL7VpVEGZZVOtVlAogySFiGxHnJZ6zYCOG6wUAONmz3YKunEVkAm2bi2sa9gfmuVHL8DMe5Ds1yKDQMyVZtDrFTQBFXKxQKEEvIgFKwHVRmkGjoPTvZSwyFtZN76kIkR+brXpayNwyFlN9OCQ1JhslyatRaFVKnbpIvgES0U7UzriEZA786UugcEpEvRi4CGBHXpLiDh/eBGlNfe319ASr7qAQw8lOLLqiKQQOP0s5s4FeMCQpqp5jq97Zj7ZwD7kFqESTe/T7pAB9V3oWOx/4tINzvvfsokwQckwD5Rsco97yPQA6WRZYWqmoAzZtuWq70KM7qrAkXbYuGVVgN7dwEobyPIV//fNqAleGMEf0jWtoryoD5sCVF59Tiof7bxK0MzGPz/PWz/ba8Pf67ol8PxuBzht9/91a2vloudH38B);lineShape=1;strokeColor=default;" vertex="1" parent="1">
          <mxGeometry x="276.1119210657207" y="235.4542562813333" width="32.86079122793103" height="8.424151698916148" as="geometry" />
        </mxCell>
        <mxCell id="G0v7JYhzNec-LpJyPUYS-7" value="" style="shape=stencil(lVfZbhsxDPyafSUkUudzmv5HgDi1UTcOHPf6+3K7kLPiWmPkbQ+OeGg4oiZ5eN8/ve0mdu+X8+n77vfh+bKf5MvEfHjd786Hiz5N8jjJw8vpvPt2Pv18fV7e355my/npx+nXvMKfBRcylTij2P1dvhSK8v/D18X+eHhd2zuK3NmzkI9jgHiS1AF0ieTGAGaKvgPETDmPAT6T9IBUSEBIfhNSrlTDGJAohr5GtVXttoNAXnpApOJBzomc8eApgCJJJa59CgnuW2TKfZGyp1JAzpFislX1aQwojmrpAYEqyKEmyhuAByHVTJUtIIGy1tICuAIiBeShtvWuAA0S5aDEyZsqASrNgL7fkvoEZVVA7AG6ca7CpEtfpczEuKylZ2vWlkZlTZSyBURUJa16tQBBOYT2e5UDaqAqGw8eA3Q9A3A4B6a02TjH2IMhX27KNspBDL0T5lJoyruit0NcisSG3lpoIK2607JtUaB8yiWrGoECbtG0adE7DRQ2Lcq4gcxO6z4k4ME7R87EVHHWlbLpID3jgBorwPcelK4Vkak0ZVw3BG5qt+nRgDzEtt4agDx8FlCYPFuAoGM3k98cchnIRgyUzTDjoAoET6kPSQ/qCsik05GRvuob42+TKVk11p1B4urtMLOi403AhqwlQCGLdjbJWjWUgW+acu0GafsyStlosQ4fBaiMhuT6GkmEx4PocdNTT2fAApikIyf3xODWsSP7anahqf+IR4Z4d3in7tnYM1pf2gT8YY84EUIrx8oetGbQXk7GHrVySDYeDyc3vWVEMfVHIh9KC/fKCBKUb7GHgvYAINBs38cf21g2smejdW3+HuX7uVvVXXt9+LjCvRyOx+UGuP5vr3z6abkuyuM/);lineShape=1;strokeColor=default;" vertex="1" parent="1">
          <mxGeometry x="286.91629228214765" y="240.1854207645831" width="41.051378504606646" height="32.23273320570206" as="geometry" />
        </mxCell>
        <mxCell id="G0v7JYhzNec-LpJyPUYS-8" value="" style="shape=stencil(7VjLctswDPwaXzEEQYLkOU3/IzNxGk/TOOO4r78vNBo5Jihteuilnd5kGSsQXCwAcic3r493L/tdDK/n0/Hz/vvh/vy4kw+7GA/Pj/vT4WxPO7ndyc3D8bT/dDp+fb6ff7/cTZbT05fjt+kLP2Zca1TihIrh5/xGKMwvPs72T4fna/tInDp7DlTbNqAGCqEDRCbN24BiAOlXFCiVbUCupL2HxBQAICnFHpCFBCxJEnG/SZqphm1ATFRLBygKg+ZCrfdQ80LMOsD+bh2gMTFYEgsV7gH2iQoAjdgBCo7BeHBLqhQVBl2DB1QUtFJ2gEaCgjYe1AMUpAZHatUDGvIQqPUeOFwyfl0Q1GTwgPTg9TNJNgE5UBwiSAySm2r1JDTAWlyxT4C0SNJntqURIjlSzN4+YgbUcczLFmxxzC5PA2VQwiyLRD0gIA+6MHpRc6MKODCtOem8A5h2qQ5LAoltFSmVIWgQQ1QKPGwr8qBUHHERL0l93TYA0pqltgcIKYrBcttpzahE28qUmgcgsfGlYF0BGi5hHDygIg8WIntAQtlq7TX6XYJLCiTiAQy2tQ0VIC4C2XTgVsSUUcw8EB1gv7VNyoMcIqYh9JKeBIcaQ12a5RUAtc8plYYaAOuqDN3Q9g0QbXLwQTOc3VYEx8sU8fuSVsFFY8i99CcB/6eSv3Yqad7+X55KhlOP2Qc0AazMJILOMJ7gmnCFZGq9bkrGUualB1zOPIkUMCzWNPoJI1/OiushZEp9DGI5hA56unT7y1GywTOPqs864yWirC7DIWkZLtdVk3xzZqgCO9S5Vsswi6r6JhLw98tSFt7sURZZS1Jvz0AFbWhquKpYMZfk7dH3M7H69YD1N12m5Df7BPiyouBkZnMFyAcrUtHzK0A0Zl89vxUdFMJ4O7Ls8JYDl6DvXNe8e71jD293Qw+Hp6f5aun6f3+XZK/meyi5/QU=);lineShape=1;strokeColor=default;" vertex="1" parent="1">
          <mxGeometry x="300.4228559936096" y="268.51024652787055" width="19.072293707848075" height="62.626949688517016" as="geometry" />
        </mxCell>
        <mxCell id="G0v7JYhzNec-LpJyPUYS-9" value="" style="shape=stencil(lVbLctswDPwaXTEkwOc5Tf8jM3FqTV0747ht8veFqko2wWg7vtHyAiSAxQKDPLztn153A7u3y/n0ffd7fL7sB/kyMI/H/e48XvQ0yOMgDy+n8+7b+fTz+Dz/fn2akNPpx+nX5OF9tquVUpis2H3MXxKl9PfD1xl/GI+3eCHPDZ4D5bBtUBK59gLJFGXbICfyrUF0VPK2QQrkahuCUAYG6i/FxiBrDOBJEim2QWtUKGifqbZPqhq02zZgyr7Be+fIAQNPtTXQQlZGeJ8tPoCQHUWDL5TAexz5dE/Aa3QrPhED3ql/gw9LijfwoSWREreginXvYaogP94WTPEC/POSjRu8j4ByxKXzDzgtHeH0/WUbH5YevMnPP0Zt4IupbyQH/VeT/wTzow3Y8wf6F+O/QN1SRWg7eOI/8K/Z6/qlwvr2/YX46Sl0/ZuAf0c52nhRvRxxtvkssF+c4YPOAZCfHh+XiDbw0vUvQ33Ihs8C8ZpPwx/+j+CyWLwH/XUv3qucmYKphIEESdfxWRkBFCgUkvaGlKFEJ09sBmsmBzQosy1CCPCGwosmrLPeQxUqhUJLi0m4QVrrOqhXAzg2lJW+xXsS0AaKN6uBEhFEfJ1aVzyDoim+isGjMa9dm7zFI/+lf4+AtUDxxcZbACVUpQzpPEWUz2p1F7flVWVXBi2r1+dt5rpFAlN0uqDFa8UR4T7bj+/FNwTVw3UZfxkPh3mXv/3fLu/6aV785fEP);lineShape=1;strokeColor=default;" vertex="1" parent="1">
          <mxGeometry x="344.27657986605027" y="239.56456756323018" width="51.16418409462767" height="32.15237333577238" as="geometry" />
        </mxCell>
        <mxCell id="G0v7JYhzNec-LpJyPUYS-10" value="" style="shape=stencil(lVfLbttADPwaXQku931O0/8IEKcW6tqB477+vlQFOSYFjeGbvOYsl8MhuTvEp4/9y/tuEP64nE/fd7/H18t+iF8GkfG4353Hi34N8XmIT2+n8+7b+fTz+Dr/fn+ZLKevH6df0w5/ZpwQhwkk/HdeYGL+v/B1Nj+MxxvzTqkY80Kpb5vrbs4+RIoNANSBWEClUrcBialYD6IeACALtWgBnUraBpREkg0gVkpxG1AzcTWAhFlqlcQGnRNF4KF3ijboWqkCWhVQkwE0poYB3XpoaSF6E9AtoC0+twAuD11gphWQrVR7Ic4QwDbo3igjWhulZgF6SBRDpc4rAGKpUlwfCQVdqFUfdAgQkJOnFeahLAV5k7gmEJBsHlQaFeWhULGZVvF1BKhLD7qR9508OGloDVYUQyO2Qde0yHEL4NqMehBcD+JiKEtJbQEcS1WL9k7FWQ9NOx+gNTB7XrXzoG48uXAlFyih8bAKoudlwGzS5DxUrD5NxKpGMxKTpto2phseNtUk3kXA8uNVEPwwAATRVDv2SKqmDGhSOTuairZjEHSJ1G3fyNrKQOZ0jmbLq64IOJJOajfadSwG0PtkpQ3dAk05vW0E2yxjwVNuIf1qz3BQBx+yaNcApAZ/HrVnsP81vKu9wKStblfTDiBn7AkNjQTolD0/IcObz6q/BKH0yP7X6+XW8e32BV7clB27e6IAakypc8mC5mH59/PijMasSqc5c9QXH7yW3zXXj88XwNt4OMwPiNv//YtBl+bXRnz+Bw==);lineShape=1;strokeColor=default;" vertex="1" parent="1">
          <mxGeometry x="356.58492291027096" y="238.59460583978102" width="78.66196695871508" height="11.335134175715666" as="geometry" />
        </mxCell>
        <mxCell id="G0v7JYhzNec-LpJyPUYS-11" value="" style="shape=stencil(lVbLctswDPwaXTEgwec5Tf8jM3FqT10747ht8veFqqEiQtJ2eqPlBYnHAotBHt6OT6+HwfPb/Xb9fvh9er4fB/kyeH+6HA+3011PgzwO8vByvR2+3a4/L8/T79enETmeflx/jTe8T3a1kvOjleeP6UsiJ38/fJ3w59NlgS+OfOzwPlDK+wYpkqudQfBUeN8gRgq9RzFQjfsGIRK7PoRCLu0bSKDSG+RKEbikOYm9S6WQ+H0DVyhLZ1AzpbJvwDZmxUeIZ+7xiQSEzOSNP7HVfTsA4tLjhWoFGaKQLJ4BPpAPPd63FG+ziLyzeFQAJUBZ3Q9oXRvDFv7D/DgS41AgBg84Ty6sKgD6Rg3EGCQKDrpUDSeUcygGpmKKViiBolUSQ6JKAeDzihSa5gA6n0Lu8I5nnm83MsVgH0igCxyVagNGk4VbOhYZrbDLuA9AS5ZBjXnVZRGylFdTJZAA/90Gq9GUEEqrLkOzXb2NFi+gwHlVL9/m3g7hAlt8AYRTRldnA86AQGPPrDKKKvbfBqVp3QKPQna5ye8sNfoAyKkWIfcvZCwFEm1WVaI9CEH1NfZZjQ73sQpy3/gyV3KbF0rsXv6U6gUQu+SW9NmAGMnBSo9dE8Rt/EoPuLXGNlFVDqrBOzRJfUvgJx4NOiWNWUAUDyqgc4ft/Uguda4ZTmj+Eb7YTnZwgdK5LP2kw4NC8aXHC6ToQijmLZM8aAJ9IPcBREiIcU02OyZck/+9Vuvhcyd/OZ3P00q//N/u8Ppp2v/l8Q8=);lineShape=1;strokeColor=default;" vertex="1" parent="1">
          <mxGeometry x="380.99292072731214" y="264.31868205852265" width="25.69176535128804" height="41.23926040899414" as="geometry" />
        </mxCell>
        <mxCell id="G0v7JYhzNec-LpJyPUYS-12" value="" style="shape=stencil(rVjbbtswDP2avBISdaOeu+4/CjRdgmVJkaa7/P3ouU4syj5Bgb05Do8lkoeHlDbh4W339LrdsHu7nE/ft7/2z5fdJnzZMO+Pu+15f9GnTXjchIeX03n77Xx6Pz6Pv1+fBsvh6cfp5/CF3yMukc8DiN2f8YUj5/69+DqaH/bHmblPlL2x//jAoj1X8tLYe/J13T4IhWLsBdhHtY+NPVMF+09CtTb2kWJct8+VgmvsMwXgbxEq3NgLJb9uL/o5Ex9HFQCqpxpaQKCIAJl864HPk0/LAHWhTcHACQaccFfOXBFxSuPyEsqKNmvBEaM9ZRIDyJQRgLs8R0oAIMUSLwUqgBniKLeAHCgBqhb9Xps5fRMD4F6m2K4gTDEBcldybTFXB6stecoGoHoAtqRBNJmeJX9ZAIR8apcQYsANLpTaVNdCBUmMZi5YwIforK5gAJhMgw8dwKEV+kSobgLAQP9gAYgbwVNiC0DCFJiKdCugLYVJeGeAggDR8lujxMiHRMwWUAA1BoDZUsFOR6rJAiqQMgXYPAhUV40SewuAPngrTAqoyAfVmU8BlHxGNu5sSekde6dBlLSAiuvCCrRyKNEuD6hBKCD21ABKpgDLViUf2lLXqAd6oxUqSV+iaJTx5LoCulOipgUNKyC2asNJFpAR+eK047mQ/VeAdLqk1ACAqFE3PmhJgSglptQKmQicmLQrZgPwEx3X+m5ut1QY5kH7uNGlzHgUqDZx6pWg6STaphjvTCfa49oOpAOTA2HVIJr+EHBjl6sKzYY+pEs66oqZHbAu6YRl+rSP05vlsMapvq4AhhWXlXyteuv0HcAKSYfplt4yZXKZ3dkefwqcr4aptnX5Or2vyV5teaEtEvRoPb6F1uEI55JIko15Qgpmx8kIRwzuSA0nQ99RGjYdN8n5zTyBInaT6tzMHchUf+SBzUDNW1f9nb1bIsMpxNlSdNMhcSWQJjIOlhXbunV4rLMzl/qODi2fu4C4a64Pt7uOl/3hMF6VzP+3dyP6arxXCY9/AQ==);lineShape=1;strokeColor=default;" vertex="1" parent="1">
          <mxGeometry x="393.12710244004165" y="257.12006827162895" width="37.40024052718422" height="82.46074002895034" as="geometry" />
        </mxCell>
        <mxCell id="G0v7JYhzNec-LpJyPUYS-13" value="" style="shape=stencil(lVZJcuMwDHyNriiSILics/wjVXHGqnHslOPM8vuBRsXYgCTIusk0mgTQjaXDh8/9y8euC+7zcj793P3uXy/7Dh+7EPrjfnfuL/zV4VOHD2+n8+7H+fR1fB1/f7wMlsPX++nXcMOfEUeAaQAF93c8cODc/4Pn0fzQH2/MB/sq7DN4WrbHAiUIex8AyzKAApACFCADkAiijCAk06WcIDoBQDJdKhxDFoD4nbVZQK2QiwDwFdnIKgOcfKFii2oekKEqAPNgARKQ5I3fjMEAEDgZg3e2NNhl/QQnLhqAAEEBUsvDPMADegnwLQ/zAAc5SiLSGiBJMRXfolpySTF3ldcSoEp9Zz4x5Mpp9SgAqUCyXIpA0qW0EjRnvW4CZKBtLhXNw1rQVWtpSKtfBtyI817mqiZiTRsVkDaprwCqIl3Rd560gZUKotYa7y7SOHlipQ+Exuy9ncZP2gD3MotrB2Vbt+QilfIr2KbSnS/kYhMxC7BGBEtHAQiSEUOO4FWREhQDkKLux0Rmloh5kDUXi1lCyDNF9r7IxBnqCxGSLAi0tcSNSdmTKVZsY/nbPpqTnTcLNdj5xAjA6/tDbe1/1n4yHHjTCIaMHHhZCcHefSYtjFefYOSH71f22GS4YB9lvLUxvpAeLxtkMqvM6xKwVxgEJ2e5N7mKrelc91RvpH7jWrtqzh/XDfqtPxzGBfz2f71x89G4rePTPw==);lineShape=1;strokeColor=default;" vertex="1" parent="1">
          <mxGeometry x="390.25555390226964" y="277.25994203626533" width="35.208450599042635" height="9.942105251705698" as="geometry" />
        </mxCell>
        <mxCell id="G0v7JYhzNec-LpJyPUYS-14" value="" style="shape=stencil(lVbLbhsxDPyavRIUqec5Tf8jQJzaqGsHjvv6+3KxkLuUs9PmtpY5osjhkJz04W3/9LqbhN+ul/PX3c/D83U/6adJ5HDa7y6Hq31N+jjpw8v5svtyOX8/PS+/X59my/nr2/nHfMOvBZdI8wwS/r0chEq8nHxe7I+H08peCnF0AGlU2zYgBmIZAcrbgJSoBQ/I1HQbUBIV7yFEqnEb0BKF6gBMHIB9pjTapwTsS89It4+kFdhXasUHYElDgEaFPaBRA6wFtgg9Qu0E0GYuavIxMEVAmwHEV1K0KwBtFrX6J6VCWmBa2T8pCwniIVH2ec1KDRVGJKl3HhARSqxjDBF5kK6uVZaaAECgWEYeEirWQOrlY0wLIi5QHvTGsAVYDOpbgJVrQACl6D1Eiqgy4iho7gLc0mcY7RlFbBx5moUKen+l7AOulFChNkqDPDNVRLLVgK9sa3kZldEdQEtvs//5pJi7wDdj9h6sLwfkwZLqm15m2JNm1rx2TJ0FPckA8SOAknubvvHGkOiUex13gLUQFMM83AZAowxK23gd5Lxqze+76CHePAgcPjrG3BhOT+lSvOWowKZ6149q6MPoXXsetVwiZVBH1qy8fbaUQXu+myJInGY/9FMTMxiE3Pv5qv8ivsJ4vwpcd0Jn5yb9BGeUjLuC3SBo/xpFYwteBvPjowvhv+3t4+/2+XI4Hpfldf3/uK3a0bLp6uMf);lineShape=1;strokeColor=default;" vertex="1" parent="1">
          <mxGeometry x="388.41270550087415" y="296.6427981416098" width="31.41797968173546" height="4.261869421822439" as="geometry" />
        </mxCell>
        <mxCell id="G0v7JYhzNec-LpJyPUYS-15" value="" style="shape=stencil(rVbLbttADPwaXQnucp/nNP2PAHFqoa4dOE4ff1+q6rombU9RoDdZ4pjkzCy5kzy8bZ9eN1Pkt9Px8HnzbX4+bSf5MMU477eb43zSp0keJ3l4ORw3n46H9/3z+vv1aYlcnr4cvi7/8H3FhUzCCyryj99vKLdfLz6u8bt5fxGfIsVi4iNTSvcBuRF3A5BAXe4DaqCYDSDJyHkT0LSkaABZqIMeeiJOBlAKcQCARt1m0L+oFQAKddt0rxQ7LEnEAjox6kFZCh7QEUt1fL4AtAwAibrL0KgCpVWHZK2kNCCWGlOpntYQgTX6lQ5huOteBsfSQgMCqPutDi1TQE0LVQeI1BCgULZNa04B56F1qs0CGJtPiNlniIDWnqmz76GAHtQIwZWUqAHzqdVy9zoU0ENg9k107RqnEDs2lIeGuq5UnZlUGkxTtF0rD2hW9ngFOGt5T2q2Zrrg4TYiU7tKgbRWvwY3BiplMPvUO8EOS+WB0aDRip0QEZ7qdiX1wgMqicd4PwPKmOj/B6CDxtFaGyVwSEsjsadaV4oAg+tabHYy5TJ4u714q/d3ypQASxL9ZhddMqDpRNEKHSqUQce9bVnvEuj8qJGcuYUKMBKPjXmO1+EM4/3EIAHlsD+cFS5crd7qleC6jeNSdCafAjjHyr2/hRUQXnztTBmtcr9yGAob2K9ZPIRUR7dleWzR2/H/eOf8e7w+/Lngvsy73Xo/vvzuL8T6ar1My+NP);lineShape=1;strokeColor=default;" vertex="1" parent="1">
          <mxGeometry x="472.04558391922114" y="254.05926482577843" width="20.00444803931532" height="20.883541237291183" as="geometry" />
        </mxCell>
        <mxCell id="G0v7JYhzNec-LpJyPUYS-16" value="" style="shape=stencil(hVbLctswDPwaXTEA3zyn6X9kJk6tqWtnHKePvy9UjVIBkjc3mcaSXOyCwBAf3o5Pr4ch8Nvtevl++DU+345D/DKEMJ6Ph+t4068hPg7x4eVyPXy7Xt7Pz/Pv16cpcvr6cfk57fB7xvVCvU2owH/mFV3gfwtf5/jTeF7FCzMxG0DoFOJ9RG8UkgGkSBkBMok9IReKAQAKlWo5FErlPqBFqtkAGlNu9wE1ULRXaoUqSFMTyu6EtqzsAwq1bgCdqQkAVKo2rT0uid4HJOJoAZlyB6QLiQNUKkCHkjYcOgngkGWRaQVA7ouVQt0AwJWCKr29EtBBAqW0IQ2ylCiJz2oBVuLF+yvZIqgGoeD2Z5giLRVLWI2HRBM1gT1gsjYonqD5sAxapoQypCpb0dSKHWiQP3y5OiEgzm2HQwDGq42au1JdVvaLZ3MllYFBWnW/7pyqzgI66wnV1YKWE6jnqka2L7c6lXGWurNeg9bWZ5c3xVMBaVW6W8CqXeybqS0PxOoIZCa1axdPAj17EyBsAMB9m/6mZvnsxbCktftE4CVJlF1/U3ehEu3UbDPRDiooq9oJLGft0R3UtMhitQ/SUGjl7Aouw4pWEYqNT8tDvk+A/VQS8Jukktp4gRnVPuJGDF4uuG/s4kuHoQBZ9+8uHpZm9fMFw6agrblkx5fRwJOoisungPiu29n4CKeXaWSz+dcFoO/u1Any//mUqh//R9yX8XSaJ+T1/34k1qV5nI6PfwE=);lineShape=1;strokeColor=default;" vertex="1" parent="1">
          <mxGeometry x="455.5182488424798" y="282.05933536083126" width="4.561374196082625" height="26.54491134550767" as="geometry" />
        </mxCell>
        <mxCell id="G0v7JYhzNec-LpJyPUYS-17" value="" style="shape=stencil(lVjLbhsxDPyavRKSqOc5Tf8jQJzaqBsHjtPH35eqofWS650iN8fhmEtyOBrtxA/v+6e33RTc++V8+r77dXi+7Cf+MoVweN3vzoeLfJr4ceKHl9N59+18+nh9vv799tQj+6cfp5/9F35fcUy5dFBwf65fOHLu3xdfr+HHw+si3DsqNr6F7fjbz414ppBAfKYUVXyi0LbjmYl1fB1f3I9vVLOK94EqbwOi5Pca0MgXAGjkggKEQg5kSNJBnYHzeMgtQGoKEAXg4SN5nSHFkfN+hjpKnDMkYjC2nCjrDNETAx4VJmeKLtTA4EqjogfHkrNuA2qiapgnRQMqNXnibOfQQNEtUTNdChRB0a0Oqs1zwNvThK160tmNRm+s52rfcoP87in0IEqFCtCa5UYTTQCA2gYTZkCgBIoQQDQ73XCbnF25WiiBDRKAmZywJaNRB6sCNVJEj8R2RytTA3Rtcfx7kYERIFNgW0NCgELB2S5FVHSxGyRzqIgassJ6g6RvsIZiT5/eBtTWvMpQyKNJJ7tBfQkRINrB9Q0BwiST9hqwWMItoTEyICkY89u2SUaDtG+11L0PQAX6jiYNkIMVnHIdoHe0zc5gC1AMvys8IXrRZqmF8ahL3loT2aCC+C2TCxaATurODbYAj0+IapQskUdFZ+sFpOiC6FqGbi3aCnVmvaMeqvHnAUKEaB8J6oynrAFFHBM6qQM5XXQOI+dWhqDJlxjOQbpuMsQ6DMt9gLd+RgABDK5Eqpp84gUiyJDLUMaFifOgaLEK1m00WEP/PeM2eKjnfV9Zx37NgAJVo5tCPWkxjuiAEIA5FcXLFiACkVcALMaSIeouBezvxacaEZArDdJWXsm93CAyoIZceaKetM/QYcnvsS7ai1KBLsktzgIY2hm5tGlp7bcmwL1gHZzEI0Pmh5Wf42XwoKfeGj6pCKme3JiMBYWq6oaqLy6VQMDWnhsSwlltSUOdNsKD3kqGJkzU19CTIqCzH85j7iTc4DAOyNv1H801WOo7KLuffBnx33D5cHvv8XI4Hq+vTZb/t+9J5KvrOxZ+/As=);lineShape=1;strokeColor=default;" vertex="1" parent="1">
          <mxGeometry x="461.03703306911757" y="288.0362468381845" width="56.613612679225525" height="30.592397088275902" as="geometry" />
        </mxCell>
        <mxCell id="G0v7JYhzNec-LpJyPUYS-18" value="" style="shape=stencil(lVbLctswDPwaXTEkwOc5Tf8jM3FqTV074zht8/eBqlIVIXlnepNpLAlgF49BHt6OT6+Hgd3b7Xr5fvg1Pt+Og3wZmMfz8XAdb/o1yOMgDy+X6+Hb9fJ+fp5/vz5NltPXj8vP6YbfM654Cm5CsfuYTyKx/3PwdbY/jeeVfU0k3NmzpxzvA7xz5PoXJFAN8InUA0JpV+wDhDh3gOTbyS4gLw40gKbBgyBCIK4dYHISxCCVJPaA0k72AUy59IBKERAx8dQHvcr0PhPZ5lWf+PvoHeooVhtESSBNVFNvn0lAljyJcSiS1Pv2GyVNzKOIyRv/PTmQ09CUvMiikkP+OxtAyRQxBYa0kigCWUwpZQsQ8ILqKEQLyIAzVaorNoYCSNBa8N5mKYJqC7klfUVDEggIphaECuAhxA0gUkUx+KablVILcEki+U3tePAC631sARXVsyO/BQCXPFPZuMQgS0vHWsUMPbJa1Z7nQLvQAEz1C+zz2l1MwDpJGHBgJ4/qLqGWumcPKoELpV5FOWPZuZa/Ze5oh0LCjrYSgpY/AqgEzOyMsF9EdaAnQeeEIGELJdORYOXIRnW5jcZ790vvkAYARCSLu0vEVBHJxc4ohmMzcLtuGZtwROnqYVTtYIePYjWhjCDCKpVi7cH9KVJ2xl7QquOtIHQoAj3kSMnsd8TIXttg31WkXbBrv7tv/q99x69+/FtuX8bTad6N1//bZViP5kVaHj8B);lineShape=1;strokeColor=default;" vertex="1" parent="1">
          <mxGeometry x="562.7724562696349" y="259.1898166542021" width="7.347538577939986" height="25.48428925432222" as="geometry" />
        </mxCell>
        <mxCell id="G0v7JYhzNec-LpJyPUYS-19" value="" style="shape=stencil(lVZdU+MwDPw1edXYli3bz8D9D2YoNENpmVLu49+fcjmXymm2w1uaaGutdiVr4LuP7eP7Zgju43Q8vG5+jU+n7cD3Qwjjfrs5jid9Gvhh4Lvnw3Hzcjx87p/m3++PU+T09Hb4Of3D7xlXKeUJFNyf+YWn6P+9+DGH78b9RXiIJNXGC9W8DmChUAwg6Bu3DoiFkhgAJ6p1HZAq1WAAURqpq4AcekDKkHTNfZFyJY4AUMk5AygBklZAYQtIrdBrgGpTKpUiIK2A/xQboDL5AAClZXwGqHDoBKFolda/SIhDpGh1mMqAyqpFjAtAAQBHXvqUMlC6lEWVlFUCgEw+92VlBJDe3iocTElIOoD2A6iSphRtldR8yN5KuliA2jshtzrK1hpZOwR5KVCxSmdlhbwUW8tfnOCQNXQKWfPlG+bTzxZQfDPLWgOJ5VBiM/xVgHduMQXKrSkgnZk8lFpJ9IBEjE5Qu3ZNnakyACTydjBpkgn4W6Wu1q4XdVhzU1kcEUBOWsWaehKMDf49gGgLWRJqPwbmSExiOYiQB8pFpmAHTcIDn13PISaKAOC1q6039B51wK+8uKhdk/L6KkDO9oPXSxH0tF/EYxEcsS2pj1QA4UW3eb0ugFNdGyhnU7TJvBIebf2lCbLCttNXFyfQBKFdrefit2mzotVia/MgmdRTdRQAVWmT8yscNXDpR4Qqhybv9zbOm+H68LXcPo+73bwbX37vl2F9NS/S/PAX);lineShape=1;strokeColor=default;" vertex="1" parent="1">
          <mxGeometry x="537.2113843519785" y="285.2037993404949" width="27.824228004553106" height="16.056440546375597" as="geometry" />
        </mxCell>
        <mxCell id="G0v7JYhzNec-LpJyPUYS-20" value="" style="shape=stencil(lVbLctswDPwaXTEE3zyn6X9kJk6tqWtnHKdt/j5QVUoCplpPb7S8AEhgF8AQHt6OT6+Hwbu32/Xy/fBrfL4dh/Bl8H48Hw/X8SanITwO4eHlcj18u17ez8/z79enCTmdflx+Th5+z3aecpqMvPuYP9RA2f/58nXGn8bzBs+NmJVBKeTTvkFgClUZ5ErZ7RvESD4qg1Qo5X2D1KhmZRADNXCl0qjpCJKGWvYNWibXlIGj0iC+scE75L9QqRaP/C8ZXPE1AHwjr+/vyYMiC74UnVFiRAon99UXyhRwgGZoBzkh+L+k7HiWCjA0cDoAe4oRpjTokrEIAUUoFDXrOJKrkBSp2QgVJSlRZfuGCngtBqxpxEwe8S5a3rWuvT286RZCdMTT2GWy8qgg/4m8frGngngtGdJCZmKs4xyMbjzyLzW2uneIpkKiaPDpDktNwajckYH2HygiQojMNEcTJZCff+i4YMZJozAiEA+owq0TckPRhkRQ+403qvG4N/6fQWWbpJCJQRUy98awGVAZKD/K+NDdqzCsQ/B2fshURkT1S9YXIUurAG8Itp9OVEEB+nxc64yl4ImDDZBAFbh35wVfofSdnflrP97BR53RqXdAPJsExV7EHbwRjhTAQf9OJ7ThFcHZ8VQrMcinjEd9/5phK2KryyrDBAiZO10WvKwI4L2yZ+p63dkz7++lcliX2pfxdJp34u3/dgmWT/MCHR4/AQ==);lineShape=1;strokeColor=default;" vertex="1" parent="1">
          <mxGeometry x="521.493579951863" y="310.2444660543108" width="47.97803933915725" height="18.25717301567147" as="geometry" />
        </mxCell>
        <mxCell id="G0v7JYhzNec-LpJyPUYS-21" value="" style="shape=stencil(lVfLctswDPwaXTEgwOc5Tf8jM3FqT1074zh9/H2hqnJMSNpObwq9KxGLBZcZ9OFt//S6G4Tfrpfz192Pw/N1P+inQeRw2u8uh6s9Dfo46MPL+bL7cjm/n56nv1+fRuT49O38fXzDz4nXGoU6soR/TSuRtP1Z+Dzhj4fTHT4wE3NHCIUkbDNaoaodQQqFBAhCoSdooVK3CVUopb6GRrFsEwqTho6QA+W8TUjRF10S/ILtWHpCLZQU6Noot47QKgUgq6mufdFjKxkQrLHiCQUUHZia6/RH89d1nTW5+0IFNdiO6qIEZD5qyWskQFSmGHt8IRaEd11uiTIwHs+/3vBxbsoqXii6Dug8feu2m3d7wwsJ0MfUcPhABbg0hEUBtoIItqPod8TYpW1BKEgi60HzGiEPmSkk+6YxENUIfg4yReAi25I4W9t5BGwUln2osAaTVV3RjRKoIZjq2RMaaFyltPhAAyWklcPl7yxtODsXX3ECTmWfCSYpej8vJiHPIbGBV/f+CCPE5sTZVOdM2cLrf+FNDpcHChNH1Z915dbz9bO0UuwzLdkKyrTmexwzZaBprsQ9QRMVFAc6e+yW/JkY5XLxg2PnRwI2tRR2qRnhZBq+uasFZYTPVHtfCJzLUkn7ObDzFNiisk8EGwx0wAvV6vAKxqaaPuzwjPDVJyYOfIsLCQ6PAtmmpGSHRw6yo9xNQaCI8IWy7xcKTDul3NzrfDNcx6/cluF+/nm7toePq/nL4Xicbvb3v/urvC1N/wbo428=);lineShape=1;strokeColor=default;" vertex="1" parent="1">
          <mxGeometry x="583.7730263272979" y="267.3627912825134" width="13.984031016259678" height="35.92001100151424" as="geometry" />
        </mxCell>
        <mxCell id="G0v7JYhzNec-LpJyPUYS-22" value="" style="shape=stencil(lVjZbhsxDPwavxKSKInSc9r+R4A4jdE0Dpz0+vtya3C9ouwJ+ra2Z9Y8hoe047u3p/vX/S6Ft/fT8dv+1+Hh/WnHn3YpHV6e9qfDuz7t+POO7x6Pp/3X0/HHy8P58+v9glyevh9/Lm/4feZJphYWVgp/zt8ESuXfF1/O+OfDywbfEkWPDwHgO+U64COVeBvfmVob8EwM7OlCMr6/UG+38TGs9hqhU0/gDzqVER8zFQGESqWMBI0BCFFPFhEjpEwBxKipzzISGhXgQ2PvMydq+TZBuolgJVTqiCAU+kDIgVoHhEoympQzVZA4mZzOjSrIg/qQR0JhyiisavHodGlQGi1S5IFQMwlyupmWjSCRGDkdLYgroVmgrxJqsjQZoWVi4ENJFMZ6WyoWmKR5LSNBSzYBaSShODqtNRtA4mIiHn3YFO11BrUx0x3Xg+YtezwKUvAVrR504EGgWD0eNb25JQn0N/gerD0H5SxQzh6PGkyc7ClUGeFlwjNQaTJrt3gQfxVY9XhUyUy9TPaDfOXJHo0PGDrTzFx6PohPnvSp+a0IX7vHo5GTKU36R/llqtXjGZWwtcFtfQF/k++LCx7EU5vgZD+amIFken+EeK8fgXrQekweHzF+qq8K/A3Ek34i0EOwqbLRs4B8RcqT/jN4f6KUPJ5BftnUtcWD90/rxwf4GCdBV5vN1x0olp+VgFcoVsE7F1QkQEK5e5+b5hjkYNkd3GDVMQWaXBXrOeusr6ar68tB8guOrEK/TtDFdawD3Vc6iJIS3OgunQT4oCbVUUklw06hFle31en6gaLU/SzWvREdWGQafqzLLdq5mOJYbfyBD+LHPQdbqm7tjWX8B9WvgP7S9Gd3QtASBwNWdzinpShwwnatuNGkyLDilCCuZ1gTv25RNaWt2rMl7NY5k8f3Z3xiKf7EUmDLVmmzPzcie1QV7hiopYNqLVmHvuDRSJDpXK2yRqKL1n0u52RYmetB44JHI2fBj/FP1jxu4d0OFeE5fDnZOIVand5sdv7eAa3gSxVHh6+gvyve7TgBjqj/vTf5GK8Pl0uax8Pz8/mOZ/u7v9TRr84XQvz5Lw==);lineShape=1;strokeColor=default;" vertex="1" parent="1">
          <mxGeometry x="570.3692315247993" y="267.8460100067705" width="52.824139854929626" height="79.45783476128736" as="geometry" />
        </mxCell>
        <mxCell id="G0v7JYhzNec-LpJyPUYS-23" value="" style="shape=stencil(lZfbbtswDIafxreETpTE6657jwJNF2NZUqTZ1r796BnyLDr+i905Dj9JPP2Uh/jwdnx6PQzBvd2ul++H3+Pz7TjEL0MI4/l4uI43fRri4xAfXi7Xw7fr5ef5ef79+jRZTk8/Lr+mFd5nLlORCQruY37hqPLfF19n89N4XpkHT1w6ex8oxn0gKhA6QJdIAEieIneALiHgSOzbARqQIsW0D2RPNXcAJyp5HyiBfO90ZpKwD1QFXAeUQlL2AXGUawfU2sJwH6jkex8kEAMfRMj3UZJICURJgWJ2SMR1H/DOkeu9FqaKvBaqfW1IaW7tASH1QIXVN/3te0CXQHHVA7AFKtqBbTGt4nCfWMK42qKgM2miNmfyaActBbFh8qBeFXDmSJnEA0Bb0gBMGQGqEqY2EmxSddqZzMWW/L2wOlNMAQqNntgW0+LVfSATbwFcTEZcpzAgHyrVZJ32KKyyyXQij3yQpkOrxMEoKWB0Q0cG1o1kdlDtQ01dKZvyrjgPhXjTDxknLogFRGBpWCVTFUA7RKobAOr3XQBEqfJG8GNr2vtDK9tJrVMpA9XIuYn1MrQcnHKcKfVhZayVian0LZpUn4EPUYFeZmKBDaTXGd83UCiUQAN5LeZeZrz2IALsoC6UQdpcE4jl5gAVw1Fyxhzl2FnZZjgXNvM5fbK6ufVowUFXTb0FKF2+6dQS+NakO+Zm4OiNCRUCiTPmAUQmbs3RCE+tL1bm4DC8XR1dWv7zSv6puT78u/2/jKfT/PGw/t9+Leir+UsjPv4B);lineShape=1;strokeColor=default;" vertex="1" parent="1">
          <mxGeometry x="579.4830076419048" y="311.4864083013347" width="35.82095133282655" height="35.573887998851205" as="geometry" />
        </mxCell>
        <mxCell id="G0v7JYhzNec-LpJyPUYS-24" value="" style="shape=stencil(lVbZctswDPwavWJAggTJ5xz/kZk4taaunXGcHn9fqhraIhRtkzdZXlDLxeIY5O5t//S6Gzy/Xc6n77tf4/NlP8j94P143O/O46U+DfIwyN3L6bz7dj69H5/n369PE3J6+nH6OZ3we44rmTJPUZ7/zG8ck+i/N49zwGE8LgKyJ3VdgAgpCNBsA0KmINsBMVAqXYAKidsOqARKH5AdxbAdEChrhy+lcfz4A5TUaMTEvB1QNRL7gQw0cqRs8a5s49kSqmnkhPC+T0FRUo/wbPiEJvEG3hk+NWMgAUyaerz7jz7B4OsJgI+nYAxRqIDzxVq04hM0UPKWD9I/UnIWnwF/pWD09OQAH6XCVn8FfNQWTIkkwA+64l9PACWsxOb8TIJKnvzK/6gJhabGAo/4CLFb4aHfyqp+A9DTrc7PzYEb/pfY4xM5wL+6y/CJsMFd3bjwQ84Iv/Yb8oMjl239MuDvV/mqHSNCvHwFL9zs1QKSpwguHOuNe0bxWtMfOzq0hnwde4UimBkpEfcaVZejgCp56U3hKAHP1ZSm/s4Me2ht4RoM3iN8bCPihkcz7zZSFnhQA9XyMRl8BBmYSsobfTxI8TRCe32wp6cdoNdHGsEtfOnxdUaiHsGrqapwD5p2hv7CiTImFEwXam11S9CvrX6fCKgPt03zZTwc5kV1+b/dTOureauVh78=);lineShape=1;strokeColor=default;" vertex="1" parent="1">
          <mxGeometry x="651.12008984474" y="279.4545073548675" width="37.4253934477365" height="25.493814141729217" as="geometry" />
        </mxCell>
        <mxCell id="G0v7JYhzNec-LpJyPUYS-25" value="" style="shape=stencil(lVbZbhpRDP2aebXsu9rPafofkUIKKg0Rodvf19PREGy4RnkbBp/xeo495Yf37dPbZkr4fjoevm9+755P2yl/mVLavW43x91Jn6b8OOWHl8Nx8+14+Pn6vPx+e5ot56cfh1/zF/4sOAKRGZTw7/ICAfH/i6+L+X73emleoBZj3yGVsX1GKGTsZwd9DCgEbB0kAUljQC2QmwEUXGO8CWgC1aasn6A8BnAF7gagnygyBghDswAmyEFIIkA2B06QIg+ag/OgOQR9UwA7Dw0aBY3G8yCcEeo0KJO6EBuTJKgtBHTbCKlQ4iSKTUI69DgkzBYgkINh0s5VC7iowwiBybvoEaBDrRbAUGoIILaABjmgkP4tlkKS45AasAsJoQfDMXuwZeJ+L2k/4BUw8tB9I5QREntwQqaca3HjKnpAJGXzMF0BOOqDjqvtA+dVDYeE6L5KYR+uKMcccvQGq4XukdSJn5S1cENpcuPaVxYOxc8BGDiW1+5y0CA5BJB4gER1/SxA+5TZN4KCkHSDkN2LPa9CcnvN5TWA89aKdUYXqQup6DwGHtLVMOkixUCY9BZIVvr0GJCAEEpIKwLzm2haIWVvj0FREdiJt6w6NbB3CkAMKeAC+nioAQUFOl86Z/scrqsrbhIBBYqk9k5fQvKj51kDDLMttrt5PSEG5t3dbeGdR+vJ9XF39qC15JcmhpPw2av2nrk+fBzQL7v9frm/L//3B7e+Wo71/PgP);lineShape=1;strokeColor=default;" vertex="1" parent="1">
          <mxGeometry x="645.5287491992403" y="276.5341262456234" width="80.61061337344063" height="13.555574012369561" as="geometry" />
        </mxCell>
        <mxCell id="G0v7JYhzNec-LpJyPUYS-26" value="" style="shape=stencil(lVfLctswDPwaXXdIgi+c0/Q/MhOn9tSNM477+vtSVWWLkLWZ3mR5QYK7C4Aa5OF9//S2G4J7v5xPX3c/D8+X/SCfhhAOr/vd+XBpT4M8DvLwcjrvvpxP31+fp99vTyNyfPp2+jGu8GuKU0XwY1Rwv6c3EVn/vvg84Y+H1wW+FuTU4X1C8dsBJSDmLkAcktsOyB7a7xA9fN4OSA5FuoAkcCQlUZQ+pRyhZTsgNJJKF1AyEgtwlqWaUGU7wAtiH6ACISw5uNDjmzBkg4Y362eUyPBGNU1Qko9HCBYfCD4g9JppRAlEM0Rn8Ylo3Fy8xhPFmolXeCX55NX6CYngy8zGgv9A6qwgGn4KPMm/WIdqnRXfyP+f+gt8JfhmX+3xilgZ/9VbfCV4Qe79412zLDVQjKsNWIVB1gegBZaqJYgXjDcCF2qg6+kWeEcLOJj8MzWEgxoDJUSSj0c1BmoSkq4rq/xbgREDxVUBRFowCZIsvhADZcjqvKyBNraj5dPRArYNKM+MbeCt3z7Cq2mgbmbgvl4J3owYoQYaS8wMMZmL9L7CEb5PKYd5z/sSJ7h+aKRrVdzXONspIBWepJRb2+13GBsfcUX1NsAHCCljDdC+cXl65jamU8/qdfTfx0dINfhAbDGOUTV41tfHsRItnkgwjhWbjydlcBsrNzxro+NY8QZf2fqtK1v+hfGjdv1A736LsXILKOwACjX31znDLXzuBYtwxKH/ewH/GN8ebrf9l8PxOH0sLP+3Xwft1fRlIY9/AA==);lineShape=1;strokeColor=default;" vertex="1" parent="1">
          <mxGeometry x="659.1973558463815" y="297.4870340794116" width="38.312933025904385" height="51.78885862373818" as="geometry" />
        </mxCell>
        <mxCell id="G0v7JYhzNec-LpJyPUYS-27" value="" style="shape=stencil(lVjbbtswDP2avBKSSInUc9f9R4Gma7CuKdru9vdjEMiN6PgMfXOcQ5uXQ/LIO755e7x72e9Kent/PX7f/z7cvz/u+MuulMPz4/718O5XO77d8c3D8XX/7fX48/n+/Pvl7oQ8Xf04/jo94c/ZjpWsn6xK+nu+k6ieb3w9458Ozxd4cXwL+NK28VWoacAn3sa3THWFTwBvxCni6zZeK6US/Qf+WCbOAd8KwDcynvCZsm3je6U8+1PI8jY+pyUfw0BHRNdf0InnAudEKsBAKc8RZ/cRlLjz+HsJIVEHMZtSr7OBkYAi2/K8YeC0baBqWkhml8R5ooBGJbZB8zyDPqgceaSZGkir8Mj6MLBCCRiwM3UOuicSkFYnAs8u9QaDzj32zgW7rlu4y3Neu8FSezfM3ex878AlJpnx1imDdk7RHzUy0A1pVTWjAvzx4TDXQBU2TyJLEV9AfnzazaTQRh30mvM6R7wCmjIxfwYvVNLKH+C/UC8xXgbjq5Ks8AqeX6mt6ouf31LEG1pPVOZJpB22jIwev8Aj/5lsfr4tjN2ob1/hM/BnGSGXeLQ+qOTov0H+1xbxAvjjb5eY/w7xcZn5JoD9HlaN86eDeNOKDzoYuJUfjXgkJ0rcld4vaP7wED+X/QjnYewv70cwoIV0FW9Ga+zKfGu4v0K8Rhks4s/ie+SnGZz/OZPODeNqpCIDG/xdDHxCg4m+HqFdxpK6XrIUFa/hGcSdUjBIMAbXMrELElRoVcfQHwbVYJnbwvpFPzUYg8vqPGeJGxxErqtlZt5JKwCmWo0HD5cvAgrnWW9zDJmpISm+cknxC2pkRsURpCFyP/CIeSpD4y5FgLumWayBQBqdjlqhyHA2+lEuqHDBu9KiuBG4O3hVsAp3vZ8BNOaTwWx0RqoFPJotLsB7zA/alY4vLcaLtIHEE4FA8c0SxROPU84WPvCzQH6yRPFdxgO28KujriH/vTwW8IwOQC0u14TPDot0/sAr2sWf/PTxf7xffHxneTg8PZ0/01z+H7/L+K3zNx2+/Qc=);lineShape=1;strokeColor=default;" vertex="1" parent="1">
          <mxGeometry x="661.3741515945921" y="312.48207033266476" width="51.282491652632416" height="85.30005916338496" as="geometry" />
        </mxCell>
        <mxCell id="G0v7JYhzNec-LpJyPUYS-28" value="" style="shape=stencil(lVfLbttADPwaXQku931O0/8IEKcW6tqB4/Tx96UqyDUpa4LcZJkjkkNyuDvEh7f90+tuEH67nE/fd7/G58t+iF8GkfG4353Hiz4N8XGIDy+n8+7b+fR+fJ5/vz5NltPTj9PP6Qu/Z1yhkieQ8J/5BVPhfy++zuaH8XhjHgrlYOwbSd22l06pGvvQqIVtQOxUxAAkUwMR5UDFRhQTJQAoiWoygBSplG1A1QCKAWShCjw09WBJLQw99ETRslQa1QYAlUo3gN4oIQ+FxLLUO1WBIbk6KKAjD5G4eEDIABCWAK6AutBwH8BUowUkaigHpuBYUp8oBwXYHFqjDCqtgGJ7qWXYfBpAtiE1wZUW6mwBvLzZKlyyLFUtHKK1EEfvgTtsvuwAgSQCgDazbe8WSZAHFQHnQYMEvRRYQ3Y0dRLUG90PtTINJ6ivJigvTG9lHVy7VmoJFsL3t6on0EoNIFidueFha0jzakgzSkJWSbRlzrcanFc0VZQ1Uwy+EGhDTEPqVlBfhmoLkKzQaDd9MKTiAMobHtK0mgjYG58GsBfLaSJAHXSGW7MyUOGQVvFSNu0gtEfFd1/ucFOn5hev7u4MZjSWhfWbTZ1ApfU0E21I8Spu93VDlp12PW0U6uh4QsGWIeiSAzkLsc0gVCjGwYuMHrjQTmTKltKADz/sx1kZCKCNVrLa4bZi3xIVChj7+qqgga8rOa66UOI1M8fNctbdKq0NhhetvN/NFKMzR8qb/blZzUHsnzyWf2iuD/9vAC/j4TBfIG7/9zcGfTXfNuLjXw==);lineShape=1;strokeColor=default;" vertex="1" parent="1">
          <mxGeometry x="655.2318745272414" y="322.2432904188936" width="36.19799098019075" height="17.83349104937315" as="geometry" />
        </mxCell>
        <mxCell id="G0v7JYhzNec-LpJyPUYS-29" value="" style="shape=stencil(lVbLctswDPwaXTHgmzin6X9kJk6tqWtnHLdN/r5QNVQE2lpPbjKJNbDAAuAQHt72T6+7wfPb5Xz6ufs7Pl/2Q/g2eD8e97vzeNGvITwO4eHldN79OJ9+H5/n369Pk+X09ev0Z/qH9xnnmIpMKM8f80mg6P8ffJ/tD+NxZa/XYu29kAeA6MgXA4iRqmwDkidOBqAnBXjIhUowgJyIwzZAEnnLoRRiEJIUcjakUikzAOi1BVRHLgKAULYcaqQIODhmYraIes9FcQYgjmqBJKr1MCUO5bVQsKz1BHpIlCxrDTKBUkto1w2wysNthLvhwudtQNU0lZ5EqABQW6EWQKSEPBTKsS8Ekp8CotWrngRQCA2p10agjDgIuQ7AuBBMuWshVR9qId8aZgFkEgcAse8IBVSk79yyvupqAaRV3/6KtEdaEgqlT6tH+haSbgwoBxSStOtFGtwmyRbAWdKaN4dCKlce7sy+fOVhEctW4Zz0AFgH3yJeATKq9FcBOVCwHafTVdDS0v7q1BrgmAmZoq30p8/b8zv1dZjWIqi0a+Jf9q4OPuCASSwDp5UH/cb9mnZ42F+tH+cpwni4UwVlGE7q8gmnhesLrNsTSE5DtavQQ/PQ3h8LV2IQTCJnS8uwJTMV7syR1K6mlqYKzVFK0sWeQTBffQ/et9ePz8fny3g4zG/X9X3/WNWj+aEbHv8B);lineShape=1;strokeColor=default;" vertex="1" parent="1">
          <mxGeometry x="654.2936224418459" y="344.2936327681082" width="27.018003944986503" height="14.543795232426191" as="geometry" />
        </mxCell>
        <mxCell id="G0v7JYhzNec-LpJyPUYS-30" value="" style="shape=stencil(lVbLbttADPwaXYldcl88p+l/BIhTC3XtwHHb5O9LVZBqrqopepNljpbkzJA7yMPb8en1MHB4u10vXw8/x+fbcZBPA/N4Ph6u482eBnkc5OHlcj18uV6+n5/n369PU+T09O3yY/rC+4zLVNsE4vAxv0iNYvz95vMcfxrPd/EcafrvDsBKCgAipOoAsVECgFQoVwewjMp+fKkkvgSm1PbjNVCJLj5QCCBeKOUuvqH4QiH5lhJXEG/l+fhoCTEAKOXgAZUSOCGGtcK1RZma4CN8TyUtvO8VwZ2O4qKsvS5x16VKFdNQvCxyJEF9NZo8b9mEAU5ojULxAJMKqKHlXkmmXXiCUO2KNmaAFxpT8TUIQzMYIPka2PqmMKXoiYsZ2qclqj6lRoIOKL3/BVegPc+BJAGamTJ38YyknTcDjBr6fqXsSa7UkLB1Y+e0CHEPoB5gHYIDSan5CiTiideWgbUCFI5g3XCWMimqIfUz26yTEAuxT8nMKUAW/w0oushmBRgzYITZOGFfdMmwS5MQfEotLqP/73OYib05FXvHFkH0XpvEAmZeJe3MHPByszWwyQhJyZa5+Hg8LYwj3yLjkUE+1sBuuGTotrCs1tWcZg7A2WYRVoFLxL7v8ylmDSCiuIzzNT7A6cL9Fsy4n9LzZaqNwJh2veuMjK93/74O2sOfu+TLeDrNV9H7//u7p72a763y+As=);lineShape=1;strokeColor=default;" vertex="1" parent="1">
          <mxGeometry x="158.13269731115224" y="486.92161221056904" width="20.69204820091636" height="6.93312578813584" as="geometry" />
        </mxCell>
        <mxCell id="G0v7JYhzNec-LpJyPUYS-31" value="" style="shape=stencil(lVfLbhsxDPyavRLUmzqn6X8EiFMv6tqB477+vtwuFEvc7hS5bZQZSeRwSHkKD2/Hp9fD5Pntdr18Pfycn2/HKXyavJ/Px8N1vunXFB6n8PByuR6+XC/fz8/r369PC3L5+nb5sezwa+XVSjksLM+/1xVP2f1d+LziT/O5w0uiwAPeBcpln1CYfB4PEHJ1n5CZXBkIQajGfUKsFOJASEyV9wm6XxpjzoHY7xO8niADoQSqeZ/gKtWRIJkCIniqaSBUoSiQ4MegVUkGWXLcktgREgi6WhkULwkITW5MqmMmBjKklvPuAJRU1WhzoRJAxC2BHT4APFP0VgIBVniPrsN7kNCNEWqhDPCOnFg8g5JQ45oSym3l376xLlB8APvndtsO74GRhQpbfAT1oBWatgGAA5yzLqvvRbhnGokbCZDLtOZMjlRjbEsbgxYRMr5WqTlBqxT0UzUhW3wBBxSSzf4V7J+obF0JRAhNor5NwKqu2eJRo2MqziYU3Yc3XUKar3fwzuSzwPt/FC82PzpB0bx0QjwmSGeNB7ZZGu+oWPaQEEormG5eMiihKK0iu4nMoLMkNcko2nJJIJqGyKNt1EgRPUOyjcHhXlQojbIxCVBB9IkgBp/QfdQk3uA9mMZVbZ8MHklQQ2v9HR5oXKO1MUPFllZe7P1BvEvftPePqGuJ1YvhbF3eJqYgyIPOfm9qdzxs7LyZ3p4cStAH38n/x+vH/VH+Mp9O65u+/799xOvS+gMgPP4B);lineShape=1;strokeColor=default;" vertex="1" parent="1">
          <mxGeometry x="150.36230518316847" y="506.4855493137711" width="22.14417985298269" height="77.74645052836127" as="geometry" />
        </mxCell>
        <mxCell id="G0v7JYhzNec-LpJyPUYS-32" value="" style="shape=stencil(lZjZctswDEW/xq8YEuD6nKb/kZk4taeunXHc7e8LV6EsQvTN5E1xDkkIuFiojTy87Z5etxt2b5fz6fv29/75stvIlw3z/rjbnvcXfdrI40YeXk7n7bfz6efxefr79elKXp9+nH5dd/gzrWMm56+r2P2dfgkk/P+HrxN/2B8XvCgfO17IB8BXqj3PxPk+Hwrl2vGeor/Px2LtcVTdfT4lqsHwAbxvjhQt78H+RYgt7xCv/snWHuDPmsiL8U9NgNf9ez5SAP73brZ3PsARoxMyibEokaAFQqEPsWooRuCjQrE/QYQccFJhCr0oQqACTNIoS2+S6gqFWWXEpVuQPTng1xgp9ScUT76CRAhtv3lBoYQzU3rl1Vnr41CnVeAcFqtrTpxP0HcoiDdOqq554Q5vapHyHryys7mv2RQh/57qC5dWlAyDEKBi5G2uKc/An0x1ZQ8SkQz2f68GYw1RiZYXJFKK1fIZxDet/FNJUNbY2qh8AXrQ/Xt7VA8B2BNbgiz0ifQc2ukLPoD4iq3VyifgTx7wGWUk1bLaH+rNe8sL4OfWsvAnKouaX8nyeH/TOjS+GeYjJ8ujYUKtXeVLAo1DvbfOR6A3plgs7wAvlNxn+EAxreyB+SjrFgDy/bO81+N7B2kzdyDBOFM2CwLOmEpsSpAmNSpZq3koV1jjopaQXtSptnFhXFSK7QIxfTQc2BFZYFoW10aseV7xzW/jBSthqBQ9EEbJbXaYW3doc/Z45nJ2hEpwmLiOsWYgogxeOafWqG98Aj5NmYozPJpVNMo+GvsDqOzRNf/NMmqzwlh23qZybveQsa6DLY14MtDUt6W69f4xz/aaUltvGPMqMNNqqCBeBzHTaqAefF0lPjHii03jAic/5c3EjichPw9Wt3gJ3p+t/jPQj/Lm2ofLlvrHxFevWZiv9toN9TDfam88ujJ99lr/Ma8Pt28IL/vDYfoEsfy//eagP03fK+TxHw==);lineShape=1;strokeColor=default;" vertex="1" parent="1">
          <mxGeometry x="209.52336330174126" y="517.0158969674183" width="41.09381882759499" height="70.0246542185007" as="geometry" />
        </mxCell>
        <mxCell id="G0v7JYhzNec-LpJyPUYS-33" value="" style="shape=stencil(lVfZbtwwDPwavxKSKOp4TtP/CJBN1+h2N9hsevx9aRhOTK49aN98cCSRMzw08MPb8en1MKTwdrtevh9+jc+348BfhpTG8/FwHW/6NPDjwA8vl+vh2/Xyfn6e31+fJsvp6cfl57TC7xnHQiFPqBT+zF9ioj5/+ToDTuN5BUiRWjIAXaL2fUCsJMUAcoM7cKBoAVKppn1A7tS6AZRIXPcBpVG0TtdIAfigv1M0gJaWQ27vIFQsoDMl3geIkLDlIQQKAYSpUbCIrpGOAFAoW0D9oGb7TI1SsEQIJKJl6tVSrWJCgErdMpdVXm0f0JWI5AEV+NAzMfsjCdBGL9SbBeRlz22AqtlSnQuJAEC/A3RiwLQCmg2rpIWZvSM1R5wyA9SnTjd7JE056HSm6ABtWWIbEHxYpcMoqTRq8QAGTKv4PED1iwCJ2GpJCt4hULFqFaaGAS5FResMyodA2clbSxWKUvTEZS0koLhqlIJLUaaMfChLsV4lUERaCr64TimK1MobKQrlXSje+SCgfGs+cPVRqkit3TOtPCBprIr1iuoEiNAtkktqpQZVsrs+qnIVlKPiqZYG2+IEaP8DqFoFrNNVUwQwp/0jW0BrSyHZbu2Zsmu8gSpIiMR+PKmyNKVt5qLXhjZ7OM/4zl40gYD9nTCmfoImAcpi7JM2GOBxLEvIP1iDpVvnsW7tGUtbc8HqTmsOOL/+rlZFAQ4NKS/l5NM+Ag0lVb1fH81JU/i6s8/g/Hw360UYH2aKVnGJKhpvsxdQhvrR8dr5qwFAc6F4fxsVkABq74aFGGBX274yAIX+wx1DHz5vKC/j6TRfcNb//Y1GP823IX78Cw==);lineShape=1;strokeColor=default;" vertex="1" parent="1">
          <mxGeometry x="188.637294004184" y="522.8919292041899" width="20.770550997841383" height="23.20942702926027" as="geometry" />
        </mxCell>
        <mxCell id="G0v7JYhzNec-LpJyPUYS-34" value="" style="shape=stencil(lVbZctswDPwavWJIgODxnKb/kZk4taaunXHc6+8LVSPHhKzN5I2isMK1WGGQh7f90+tu4PB2OZ++736Pz5f9IF8G5vG4353Hi50GeRzk4eV03n07n34en+fn16fJcjr9OP2avvBnxmmhUiYUh7/zTSbl/xdfZ/vDeLyxL5lq7OxZqco2oJqD1gFSoAA8NKVQO4DKcnMXII1a6gAtEScAyNT6nFukoABQiPuQpqziNsBSrNoDEinIIZmHvko1UgMAVZ90DcRhG5CtTb2H0igBgHU6Bg/IIKSqlFY5BFClJt5DFWLQh1Yp9uSrFmTeBsRgXHMuLGvADXOhfasbU0ExJe/BCFyABwu5SA+oFBpoRCF1/G6kIOtcSPocbupwn02GEO9CgItUKTnABxMRKbMvEwOAzVwOvhERT7VTplqXmy3dkD4kYzAc0kS1143Ki3reLyuvAIEyaHVm0tXMKWBf4YVrt1MNQrKIlX1ICXS6mZSxTzoh/TZ+Z19W1LhPA0Q9NTRjwCqHhP8QbDrUhySRKqBG9FWNDO1XshQDKSDGVduvJYJCaZPSh5Px+FPuSSTUoKounLzuAEu57tvbStGPQYD/NnMv6uwZMM7a66YGq51JizZnL6CaE1l6sYuQPXpdcN7rk0H8mrw2Jjhhn93ZPra3w/uC+DIeDvN+efveL5R2NS+j8vgP);lineShape=1;strokeColor=default;" vertex="1" parent="1">
          <mxGeometry x="277.9700906733415" y="516.9622517765818" width="6.847652046958046" height="21.010752383630916" as="geometry" />
        </mxCell>
        <mxCell id="G0v7JYhzNec-LpJyPUYS-35" value="" style="shape=stencil(7Vnbcls3DPwavWJIghfgOU3/IzNxak1dO+O4t78vTlQei4C0Gj81nfGbLGNFXJdL8sAfvt1/+np3KOnby/PTr3d/Hj+/3B/4p0Mpx8f7u+fji3068McDf/jy9Hz3y/PT74+fT39//bRZbp9+e/pj+4W/TrjRSeqGKunv0zeZ6vj+xc8n+4fj47m9krTFflAB9pIpu98v1BQAElVdAUpFgEeDhiyA0udPXAYwtbwAmKn364A+SFaXaqKSASB7l2qDK7RGumapKrUGAInGGkOzNct1QK0z6zsgUUsAYB6n1aU9b5cBVqbis1RB4RqT8FoHoQ4KZ1mqa5ZYYR1ap6IekBBgUO5vAgilFFwCaTXAGB7QUJaUKvu0ZlBpA2iowwBp7dbMrvkybD4DsAMUYjRAcQWmDFhjiyEA/v3mapZWWrKG77hw4tq7zdpfrTR7QEMuZdLVpa3h0YgWz0vGI4hbOVNas9SVGFQ6hxE18kRkrJTXJEmbWbjsEek6PmqtBzpJqK7+aKUKpscCyA7QiMH0cPW7yQbAVZPsXRLgUhdfNQNksIIUP9Bq2w9IklqZewCAoC1ECYABGkmH5/otBtQX4hvJAAzGzQBuRzRAA+OmOlv/DKCg9QzQ13GzNKBeMoAmD1BQh5ySJ3vt1LBPjgIs04i7DTACoKPKaZgggcxq/9bhAWj/0TijRp0IMCbL7QCdPHUNUFIAIE1p1B5WUKQp+YJLggFJPQC1qw11izGA1jCA08WWVkZUWSi5GDB3bys4Fti1/tUYmgegXrIs5TBySOZudYhsjIKuNMKMosOA7U+R7ytawUIUDxAUQw8u9VsrqHNpQKUh40KlFbDG5pJbQeCOYgAO83AjrX14wEDtXUOldWqDa4AkAYBi4AsxDMD31t49rFBQWgsV9mm9MXFOIm5ceGOmxQMSXqGG5kP6xwDqXGpT4FxLaw+Aiivt5UzDNwJvBWiZ0uJckr3LmR9EzqA0/ZhyJgz1fytnNFxrbFIApTUeCAZm4zLPwucAdMIXf720uQS4cjvsBr5P+GDW2AMGAGSZ0mK/F3xt4MtBBCkgcAuK42ADBMqQqKwOieUI+uMP0xmOW+6TtPbTOkMBV6yoq0cdc/frfdt+RTEgUdbhdXHFQtr6wl073rqXeb/j+56l9zu+/8Udn4nQAECHgSr++aR2SEq2Qg4rdOSShCwVKBE7+y2UB+R62xzckxFnSHxjd2ACSoX71djF1M71MmXpZUCbDuwApgZisBW8gIOFHuFFh+G8mb2LgCGxbvZrAAXqSbN3EjdDOWn27koww2tQK5nb3BK8uzZ7l59EFYym7WSszj7jjkjN2aO9f+wNdmaP/G++RROul0kDb49e00afr6qv9ojr3vwse9PePry+AX85PjycnpDP/+/fjO2r03szf/wH);lineShape=1;strokeColor=default;" vertex="1" parent="1">
          <mxGeometry x="257.29611810983556" y="497.31319552797413" width="60.15756564874846" height="64.06434524454971" as="geometry" />
        </mxCell>
        <mxCell id="G0v7JYhzNec-LpJyPUYS-36" value="" style="shape=stencil(7VjJbttADP0aXQnOwlnOafofAeLURt04cJwuf18K6sgaSn5BjgVyk615w+Hy+Dgawt3r/uFlN3h+vZxP33e/Do+X/RC+DN4fnve78+GiT0O4H8Ld0+m8+3Y+vT0/Tr9fHsaV49OP089xh98TrgiVMKI8/5n+SZSnP75O64+H58X6rK99t94HcvE2QDL53kCMJPU2IBZKrgNIIScAkCj2FjJTLdCCARRH1QMfAnnuAJUpJgAoVA0gUABHUkAqPSBSAU5Lotr7UBN5dKRAOfaATAISFysF44MekgEgUMk9oFIEgJApJwv4t8U2wFHonXbMxMCEj1TFmsjAhKttvwXAOwBQr50NUwAMUvts8+CBC4lK7dcrZVEpkZigRoogz0Ers0/bO2xQ+tTeY+Ubo0qSRpaZ0YEqqFVltO+zJp4c6hlaaD19hElAmiXarOkWHgCSo9SnYewiIEpJ6bMCOADImZxbWQCFUSKxrHwAFopGKa+iBCxUT4VXeQBk0C5nilszjYpVLbBJnFBCPmgQjYUM1aHoiY0F5SfwIWvLiBaA5CTlJoAzQJsIqFZ9LdVaSKBlaBC5WqcTYtzs4gxITYZvUdS0YmWIINGVVaY9bKxxFvEZ4Frut532djLR8k5I4WYGLwiUgA9JZ5k1RYGFHG3iFOBBHrSTlmIBBZRGyVZDlaKM1MRZgdOwosQpRc2kMU43iKIfBSw0eRYInRFRN/4clz7Hpf9kXPK2jSkDBey/4sIoSEDguIVvMVxF0DFCe7vo9KjpOd/aw9ySfCPTtsO5VcB848MeaNmZFEu70d0aQI1CR9iFQ2rT5nwgKmheZXsDddBhlTbpU8ZNJ7YryLXGcF2PxjBtXmz3R6RMqjrOrHfois52VGU4UumV3sTftfvxtkZxk+Fr/AXktwQrgnMP2F4vbRi61g8U2Q9+wnh/vT5cv5c8HY7H6XPL8r39vqJ/Td9mwv1f);lineShape=1;strokeColor=default;" vertex="1" parent="1">
          <mxGeometry x="286.88462000030654" y="563.1033099650724" width="6.996765077456075" height="30.737097347875988" as="geometry" />
        </mxCell>
        <mxCell id="G0v7JYhzNec-LpJyPUYS-37" value="" style="shape=stencil(lVjZbhsxDPwavxISqYvPafofAeI0Rt04cNLr78utIcei1mPkbbOZsXgMD+1G7t6eH163Gw5v78fD9+3v3eP780a+bJh3L8/b4+7dnjZyv5G7p8Nx++14+PnyePr79WFBLk8/Dr+WX/hz4nEjKQuLw9/Tm0TC/198PeH3u5dLfKYYB3zrL1bxUSmnAR8LaQKETGk8gIVaA4RIYfRAIhVgUqUQRrzZKNfxQqWOEardp/UQURjxOZNU9Psy4guTAIcbBRnxjRSkzCJaeSDUTEFhjquOOQ7wBKmU2kgoJCCkOfgcaIQEC0keVaGJFAS1mmjcCRn60JiqO4Ep5usEtZi4SrDMgLxpoZB9WLkAQu3CP2c6UQSJUzNgNKkIZWRSI06egKRhBFfOlpmKotQmH5gKyIMqsUwngHLWqcMYQZEP6uVtTifkg5Jmn4eAeliY9G2MGvARzglrGtimWj1BQQUtYXLaKLAtGSGqJxTg9ZLq7AnQ6bZiUsZi4onA6ITalXARpYK0YSU3hTWgKNXJ6dQH2FWTHEF6Kq85HScCo0w3SlMFNZw4ryXGmTZp8ETAak1TjaKhvsibJ6cxQafWh5xer9F044hJGxGH6ZOE2uV/nhAMp5xNzTym2t4oGClNKI4m2VRCJtkcdYm4CNy1Ue36hsUhgIpI6r22US3AJik+rjaLby2t44rYUi/bdXEk3wZqg3o9N7oznmFjin7JNbUq+P1Jq9m0CoQRfTWkBGeiBXzMmcU4I+FRGvG2lSaguyi+TZpLaDOJU+eOeEjztPClfi9Yx9e+6HR8gBuo4d1FKVAEGTZ8yQ6PysbwbgMIfc9fxze/JwWouCVBzeETugS0Pig/8A3jm7vowfXC8CoOr6BLLHinIFgBC95d8yigHmFDsDk8uhUaPruSgRX86Yv2Tbw9fNzqn3b7/emjwOX//VcAe3X6giD3/wA=);lineShape=1;strokeColor=default;" vertex="1" parent="1">
          <mxGeometry x="252.80760209936648" y="570.5741463097543" width="116.11967390255904" height="61.23826731005215" as="geometry" />
        </mxCell>
        <mxCell id="G0v7JYhzNec-LpJyPUYS-38" value="" style="shape=stencil(7VnJbhsxDP0aXwltlMRz2v5HgDiN0TQOnHT7+1JwNB5R9nNzLJCbPeazuPNRs4k3Lw+3z9tNcC+vh/237a/d3evDJn7ahLB7etgedq/6aRM/b+LN/f6w/XrY/3i6O35/vm2S7dP3/c/2D7+POM+UpaGC+/P2hOLxwZej/OPuaS2fqMZBPpELQD5S8IN8oeCAvCdXR308Jb4MqJTDKJ+pAIUy+TLIh0CSLssn8qP+QboHzsoHyjzIx0wV6B/JpdGfkWK5LM8Ujf+FHJAXyqM864koAEzFjYBEOQODg80IBRSgUXNgtiolD1yUKY0+4iVLzsfMUa3WSREELQXiMStSpQiipoAqFhCAlzSqIU0AkKcK4PkEpFIk8e+yIfVKXAESqH0FpMmGjOKgmTOdICDSDTAFziO3Jtu+FJCQW2eV5JoN1mi5ZoPpeOzIg4prgYsWACPten2taxr1mGKbDOMmGTX5RpWyJwZdMurUGGs6F1zTrufmMhe00yKVPJXRrVXdilRiG7iqT0BfSr77ZAFoaqBIC5XRBtG2AE7Irv/fAuA+Xs4Cirp1tEFKd/T5aRhtI5MKT5BpfuoJAbhVxOZSA6ABtBTk2gbQZhRQJkAGBaQAmQAVeMk712fg2k3YCEkWgJKpGZEtoGC/pgkgwIgWiLH1nZ5cDHW1AA+mogLCBEBzV91uA1H7k0uAPLk1Ixu0q9QpDii/S2eP60ijZCrEBqDJhE8o1QIYdOOTAv9Y1LKM5XXJ4RNkOgEClB7NKuFsNbSyGY0iLb0zrgCIJbaKM0ZXcrgeZEoNxKRFLHFtyYdPmJur4MYUTD0ItqFSnQBXSvR9AB0QZlCvmuH5GeTsRtOOADXKczvOJIjPVGIzFhMxcFOcc8P3qXSJz/jRhprhDNIdxU9sA3FjXWsNES0Rtr6wjIOFMeW+tVwiQG7MPqUTjADJzlFmuErH2kt4tWcxYkwfa9Mb4GNt+g/WpmCvlto1AjhB1yazBbHmLwI428i04pBKIVjuoIsZcmu7fvMWkECki11ROHVSd+H6ytzNtDiDFuA6+1pdXyFePBHvmGGr95a+aWdOKASWKqlF+DrN3BT5TA7NT9uPvIOEVX8OZpOG3cV7uzdEaK8PNiEcZKsqL2zkof9jbyQneai/qhuNvEcJHW2COsiQ/HQfi9mLyierv0P+mQrMwZXHc7+1OMkH9P/cecfKnyh/uM/4kzy6k5ivbx1ehdnSEA/547vfF1yV1w+nlxP3u8fH47uN9e/2ZYY+Or4IiZ//Ag==);lineShape=1;strokeColor=default;" vertex="1" parent="1">
          <mxGeometry x="317.00945423880285" y="481.5448675537723" width="98.1746109459582" height="132.19969778075824" as="geometry" />
        </mxCell>
        <mxCell id="G0v7JYhzNec-LpJyPUYS-39" value="" style="shape=stencil(jVTLcsIwDPyaXHdsy5blM6X/wQyhZEoJA/T193WahqIUNL3Z8q5eXqmhxWm7OrRNcKfzsX9u37v1edvQQxNCt9+2x+5cTw0tG1ps+mP7dOxf9+vxflgNyOH00r8NHj5GnoNzAym4z8mQ6NvwOMJ33f4K7h1EZvgfBzfxgVDSDM9yH08JmRXeg9N9fAxIQeGrwcgnRUSNJzMfZhApPMPH+/ickLzCFxTDv7h5f3ycPPyTUDtKwcioIMwIDLEIGUGXQDQ17TaBJ8lMhOiQjRqyIGVNEMRiFF1FoCOkZH6bZDgdgT2SEaHQXNecEQ0hFQFHRcgEZxTt3Z9RG/pgzFoNUXROEuEM8dUiks5JBN5qUwQXrVZvpsQCpz+iMAIb83l5vujb2Rujakf0hJaCqBpbD7/rbNPtduM2vH6fr79qGlcnLb8A);fillColor=none;strokeColor=default;" vertex="1" parent="1">
          <mxGeometry x="478" y="544.3333333333333" width="36.75" height="126.91666666666674" as="geometry" />
        </mxCell>
        <mxCell id="G0v7JYhzNec-LpJyPUYS-40" value="" style="shape=stencil(fVXLcsIwDPyaXHdsSX6dafsfzBBKppQwQF9/X9MMNPIE3Rx719JKG7nj1Xm3PvYdufPlNL71X8Pmsuv4qSMaDrv+NFzqquPnjlfb8dS/nsaPw2b6Pq6vyOvqffy83vA98Rycu5LI/UwbApf/Nl4m+H44zOAECgruEfgxPCImBb+HW4R7ugWf4ZOBF6TSpOOCgS8grZaQvaGW4fX9ET4a+HrclMfDG4IpIZEmJIhV/4zCWoEgWBEKkm4Bk6mBHbghFESjqJWQGwvd275M8EiaEAjJcBELvLZFyLaGBNZljYRIjwlSNegIMYKKQRBQVITk4K0IEbkhVFWG9yS3/07Kt59vkRAcRIvOdHPXMoFuCdwJCcFIKQhY27t4FKPTtU2kNZSAKMa8YDjRhGymFAucFl2qWw0vpYAgLUEMDZlRtDW8s6dYkXbKlIhiNGJ24aywouxXF/8jfDvs99MLMD9vR37dmp4Lfv4F);fillColor=none;strokeColor=default;" vertex="1" parent="1">
          <mxGeometry x="422" y="595.8" width="207" height="78.36666666666679" as="geometry" />
        </mxCell>
      </root>
    </mxGraphModel>
  </diagram>
</mxfile>
